HIERARCHY
ROOT SpineBase
{
  OFFSET 0.000000 0.000000 0.000000
  CHANNELS 6 Xposition Yposition Zposition Zrotation Xrotation Yrotation
  JOINT SpineMid
  {
    OFFSET 0.000000 32.302320 0.000000
    CHANNELS 3 Zrotation Xrotation Yrotation
    JOINT SpineShoulder
    {
      OFFSET 0.081774 23.992088 -0.800673
      CHANNELS 3 Zrotation Xrotation Yrotation
      JOINT Neck
      {
        OFFSET 0.100961 7.922043 -0.599147
        CHANNELS 3 Zrotation Xrotation Yrotation
        JOINT Head
        {
          OFFSET 0.513448 13.658827 -2.075512
          CHANNELS 3 Zrotation Xrotation Yrotation
          End Site
          {
            OFFSET 0 0 0
          }
        }
      }
      JOINT ShoulderLeft
      {
        OFFSET -15.199771 -3.211354 -9.294536
        CHANNELS 3 Zrotation Xrotation Yrotation
        JOINT ElbowLeft
        {
          OFFSET -5.526731 -26.425082 -4.772309
          CHANNELS 3 Zrotation Xrotation Yrotation
          JOINT WristLeft
          {
            OFFSET 0.548198 -21.019746 -7.515967
            CHANNELS 3 Zrotation Xrotation Yrotation
            JOINT HandLeft
            {
              OFFSET 0.399970 -8.201889 -1.962936
              CHANNELS 3 Zrotation Xrotation Yrotation
              JOINT HandTipLeft
              {
                OFFSET 0.802767 -7.947573 -2.023772
                CHANNELS 3 Zrotation Xrotation Yrotation
                End Site
                {
                  OFFSET 0 0 0
                }
              }
              JOINT ThumbLeft
              {
                OFFSET -1.761555 -1.311242 -4.981031
                CHANNELS 3 Zrotation Xrotation Yrotation
                End Site
                {
                  OFFSET 0 0 0
                }
              }
            }
          }
        }
      }
      JOINT ShoulderRight
      {
        OFFSET 15.062920 -5.418223 6.588221
        CHANNELS 3 Zrotation Xrotation Yrotation
        JOINT ElbowRight
        {
          OFFSET 4.131619 -29.183257 3.209190
          CHANNELS 3 Zrotation Xrotation Yrotation
          JOINT WristRight
          {
            OFFSET 3.621162 -24.002121 -2.453240
            CHANNELS 3 Zrotation Xrotation Yrotation
            JOINT HandRight
            {
              OFFSET 0.822725 -8.238676 -3.032311
              CHANNELS 3 Zrotation Xrotation Yrotation
              JOINT HandTipRight
              {
                OFFSET 4.567427 -7.863576 -3.897796
                CHANNELS 3 Zrotation Xrotation Yrotation
                End Site
                {
                  OFFSET 0 0 0
                }
              }
              JOINT ThumbRight
              {
                OFFSET -1.964727 -0.647591 -2.902319
                CHANNELS 3 Zrotation Xrotation Yrotation
                End Site
                {
                  OFFSET 0 0 0
                }
              }
            }
          }
        }
      }
    }
  }
  JOINT HipLeft
  {
    OFFSET -5.928988 0.908354 -7.067789
    CHANNELS 3 Zrotation Xrotation Yrotation
    JOINT KneeLeft
    {
      OFFSET -4.103993 -34.393122 -2.865759
      CHANNELS 3 Zrotation Xrotation Yrotation
      JOINT AnkleLeft
      {
        OFFSET -3.520616 -35.616076 6.247781
        CHANNELS 3 Zrotation Xrotation Yrotation
        JOINT FootLeft
        {
          OFFSET 5.585625 -4.493762 -12.776607
          CHANNELS 3 Zrotation Xrotation Yrotation
          End Site
          {
            OFFSET 0 0 0
          }
        }
      }
    }
  }
  JOINT HipRight
  {
    OFFSET 7.135441 -0.030997 -0.756455
    CHANNELS 3 Zrotation Xrotation Yrotation
    JOINT KneeRight
    {
      OFFSET -4.213678 -32.611745 3.113039
      CHANNELS 3 Zrotation Xrotation Yrotation
      JOINT AnkleRight
      {
        OFFSET -6.657272 -34.205930 6.983604
        CHANNELS 3 Zrotation Xrotation Yrotation
        JOINT FootRight
        {
          OFFSET 5.477984 -4.539499 -12.808888
          CHANNELS 3 Zrotation Xrotation Yrotation
          End Site
          {
            OFFSET 0 0 0
          }
        }
      }
    }
  }
}
MOTION
Frames: 15
Frame Time: 0.033333
-64.498723 77.219942 390.000614 3.134541 -3.022390 -45.389667 -0.000180 -0.064755 45.588229 0.135184 -0.090084 0.169007 -23.250380 15.340924 -0.438002 0.000000 0.000000 0.000000 -1.902021 4.320309 -0.755844 3.325047 -13.503027 -0.932169 -0.018842 -5.273061 0.265353 -1.733337 -0.606284 -0.340144 0.000000 0.000000 0.000000 0.000000 0.000000 0.000000 0.783585 -14.563692 -1.837404 48.618314 7.587524 -16.083239 -2.257044 33.105473 -23.303096 -25.164534 -5.984594 11.752791 0.000000 0.000000 0.000000 0.000000 0.000000 0.000000 -0.086173 -8.644054 47.136939 1.892251 5.763678 -1.341201 5.554888 1.803986 -13.692655 0.000000 0.000000 0.000000 -1.907364 -0.277562 45.869130 0.563788 0.501406 0.293369 -0.045484 -2.903449 -12.804900 0.000000 0.000000 0.000000
-64.645318 77.134910 389.720483 3.099220 -3.009129 -46.383104 -0.052073 -0.063918 46.577663 0.117021 -0.069712 0.163803 -23.436126 15.052438 -0.489693 0.000000 0.000000 0.000000 -2.157709 4.591024 -0.740533 3.623278 -14.547367 -0.871170 -1.335582 -3.730421 0.686295 0.063632 -3.512869 -1.259407 0.000000 0.000000 0.000000 0.000000 0.000000 0.000000 3.921094 -18.128134 -1.463005 57.907246 7.877553 -22.350214 -0.523108 35.225144 -32.332284 -24.013602 -8.471682 11.866048 0.000000 0.000000 0.000000 0.000000 0.000000 0.000000 -0.602861 -8.780662 48.090692 2.559193 4.956155 -1.342650 4.839489 -0.306721 -16.069171 0.000000 0.000000 0.000000 -1.241968 2.267600 46.845120 -3.207028 -2.041703 0.232497 -2.541288 -7.800124 -11.282297 0.000000 0.000000 0.000000
-64.808931 77.062704 389.425488 3.045822 -3.019808 -47.398683 -0.047791 -0.073506 47.590596 0.111927 -0.081528 0.161701 -23.824162 15.250662 -0.446038 0.000000 0.000000 0.000000 -2.450103 4.986589 -0.726829 3.829580 -15.187930 -0.787604 -1.975700 -3.180703 0.884802 -0.227318 -6.234146 -1.388684 0.000000 0.000000 0.000000 0.000000 0.000000 0.000000 10.137461 -21.639368 -0.084403 64.606102 7.628279 -29.406637 1.980326 32.618992 -40.727185 -26.494017 -5.259239 12.609868 0.000000 0.000000 0.000000 0.000000 0.000000 0.000000 -1.144060 -9.005178 49.078972 3.317218 4.251000 -1.363704 4.888612 -0.248090 -16.993213 0.000000 0.000000 0.000000 -0.473760 5.405625 47.814659 -6.802404 -4.776255 0.157641 -5.107811 -11.897145 -10.315453 0.000000 0.000000 0.000000
-64.959930 77.005798 389.137880 2.970551 -3.036217 -47.991202 -0.001233 -0.084929 48.180498 0.108189 -0.107879 0.160752 -24.339004 15.673173 -0.351434 0.000000 0.000000 0.000000 -2.781750 5.266394 -0.666513 3.902443 -15.338815 -0.730689 -2.010490 -3.940080 0.828957 -0.922015 -5.040195 -1.067740 0.000000 0.000000 0.000000 0.000000 0.000000 0.000000 18.146374 -25.337924 2.194394 71.774935 5.988344 -38.135393 -2.366938 28.619204 -44.888515 -20.631506 -1.691961 13.608492 0.000000 0.000000 0.000000 0.000000 0.000000 0.000000 -1.835524 -9.282801 49.635764 4.544420 3.357870 -1.350272 4.497205 0.088851 -17.530336 0.000000 0.000000 0.000000 0.216923 8.652546 48.313895 -9.724478 -7.555577 0.152191 -7.245671 -14.210755 -9.867139 0.000000 0.000000 0.000000
-65.084376 76.979877 388.874889 2.914025 -3.033115 -48.411917 0.092284 -0.090460 48.600288 0.101500 -0.133328 0.162035 -25.252347 16.330911 -0.205444 0.000000 0.000000 0.000000 -3.032996 5.598090 -0.648220 3.831963 -15.413042 -0.637190 -2.424179 -5.486776 0.863693 -2.322575 -3.742175 -0.452199 0.000000 0.000000 0.000000 0.000000 0.000000 0.000000 27.069495 -27.879053 5.170621 76.949774 2.137521 -45.370187 -5.137231 23.916978 -49.458609 -18.842439 2.969673 14.048726 0.000000 0.000000 0.000000 0.000000 0.000000 0.000000 -2.570971 -9.701437 50.029757 5.944458 2.401175 -1.326196 3.986710 0.649200 -17.783135 0.000000 0.000000 0.000000 0.800086 11.621806 48.616602 -11.760768 -10.260242 0.310427 -8.507945 -14.041741 -10.153910 0.000000 0.000000 0.000000
-65.176577 76.966053 388.613956 2.808776 -3.024483 -48.363392 0.000676 -0.153580 48.543538 0.031531 -0.107495 0.148099 -25.297625 16.257027 -0.213137 0.000000 0.000000 0.000000 -3.215081 6.023943 -0.615715 4.110019 -15.196983 -0.536745 -2.881534 -6.224274 0.942426 -2.064328 -1.066901 -0.252945 0.000000 0.000000 0.000000 0.000000 0.000000 0.000000 37.303836 -28.125672 8.549149 78.882387 -5.229806 -46.852551 -8.340002 28.871570 -61.790229 -8.088644 5.906242 19.223124 0.000000 0.000000 0.000000 0.000000 0.000000 0.000000 -2.814446 -10.186862 50.026646 7.106324 2.266601 -1.370636 3.231327 1.234300 -16.649626 0.000000 0.000000 0.000000 1.317750 13.913373 48.444520 -12.635950 -12.586801 0.697113 -8.727369 -11.100155 -9.831895 0.000000 0.000000 0.000000
-65.252515 76.956043 388.362035 2.568008 -2.913966 -47.487286 -0.162412 -0.223864 47.646445 -0.035972 -0.071898 0.124603 -24.435817 15.589178 -0.362075 0.000000 0.000000 0.000000 -3.307175 6.045860 -0.501778 4.531138 -14.107734 -0.536554 -3.658112 -6.628330 1.122216 -1.225741 -0.625770 -0.512389 0.000000 0.000000 0.000000 0.000000 0.000000 0.000000 48.118220 -26.345470 11.697214 78.249094 -14.010530 -41.952813 -1.588418 32.110628 -83.610941 -6.317391 3.254327 25.898104 0.000000 0.000000 0.000000 0.000000 0.000000 0.000000 -2.905812 -10.121675 49.121237 7.439981 1.775498 -1.325276 2.705716 2.176949 -14.798489 0.000000 0.000000 0.000000 2.218350 15.140930 47.459049 -12.221909 -13.935603 1.312734 -8.007636 -6.086196 -9.925550 0.000000 0.000000 0.000000
-65.291488 76.949089 388.135783 2.300566 -2.790725 -46.039651 -0.314076 -0.261398 46.176457 -0.076002 -0.035697 0.102510 -23.154253 14.544678 -0.568174 0.000000 0.000000 0.000000 -3.507749 6.252134 -0.409045 5.124468 -13.047180 -0.503918 -4.571334 -6.718555 1.341889 0.721912 0.948075 -1.051502 0.000000 0.000000 0.000000 0.000000 0.000000 0.000000 57.243432 -21.860152 13.110772 77.635550 -22.521936 -29.006661 13.291299 30.369484 -116.857219 -5.631302 -2.340419 36.144955 0.000000 0.000000 0.000000 0.000000 0.000000 0.000000 -2.491751 -9.771736 47.665380 6.863119 1.911390 -1.311915 2.403238 2.893772 -12.308339 0.000000 0.000000 0.000000 2.954154 15.415403 45.924701 -10.638453 -14.648358 2.095411 -6.441577 0.227694 -10.760917 0.000000 0.000000 0.000000
-65.258699 77.015062 388.035752 1.889666 -2.569212 -43.324856 -0.486294 -0.276231 43.429220 -0.111620 -0.002657 0.073448 -20.999862 13.398302 -0.773144 0.000000 0.000000 0.000000 -3.654488 5.778740 -0.182255 5.596810 -10.894342 -0.606795 -5.113541 -6.386008 1.414302 2.309773 1.300122 -1.470034 0.000000 0.000000 0.000000 0.000000 0.000000 0.000000 64.136953 -14.267596 11.976774 78.695170 -28.946574 -7.101991 31.952382 20.082244 -164.329881 16.328880 -3.352726 74.886366 0.000000 0.000000 0.000000 0.000000 0.000000 0.000000 -1.793509 -9.195426 44.922144 5.929227 2.504423 -1.297645 1.912432 3.365651 -9.037064 0.000000 0.000000 0.000000 4.098164 14.099381 43.206826 -7.901127 -13.624275 2.777520 -4.358963 6.445555 -12.015874 0.000000 0.000000 0.000000
-65.134772 77.107546 388.039365 1.350564 -2.295193 -39.888794 -0.635926 -0.251856 39.955379 -0.125654 0.024526 0.041294 -18.462923 12.098476 -0.944625 0.000000 0.000000 0.000000 -3.833891 5.191740 0.079148 6.110987 -8.419499 -0.718276 -5.416896 -5.864244 1.404503 4.168146 2.092146 -1.842121 0.000000 0.000000 0.000000 0.000000 0.000000 0.000000 70.115038 -3.470022 8.227643 81.361533 -31.140483 18.723659 41.358270 9.789429 159.348460 36.186474 21.417496 119.231553 0.000000 0.000000 0.000000 0.000000 0.000000 0.000000 -0.823529 -8.591756 41.450342 4.723576 3.450332 -1.292818 1.379357 3.552704 -5.464478 0.000000 0.000000 0.000000 5.504320 12.770039 39.772909 -6.279631 -12.647596 3.042489 -4.704335 9.097012 -9.296252 0.000000 0.000000 0.000000
-64.937122 77.201921 388.126867 0.791064 -2.068533 -36.171865 -0.729166 -0.202951 36.204686 -0.118430 0.035171 0.012748 -16.024590 10.916410 -1.030179 0.000000 0.000000 0.000000 -4.062975 4.633888 0.344835 6.707183 -6.189023 -0.855933 -5.986789 -4.674167 1.520131 5.076245 2.588047 -1.780104 0.000000 0.000000 0.000000 0.000000 0.000000 0.000000 73.100380 8.512697 2.397854 83.474392 -27.260771 33.238165 15.485489 8.602523 -131.885679 41.219029 2.871495 89.849715 0.000000 0.000000 0.000000 0.000000 0.000000 0.000000 -0.245816 -7.731825 37.608179 3.720642 3.715970 -1.191073 0.728826 3.757002 -2.157924 0.000000 0.000000 0.000000 6.705092 10.906669 36.143842 -4.925158 -10.969493 2.959679 -6.193746 9.672414 -4.432254 0.000000 0.000000 0.000000
-64.653297 77.355369 388.389947 0.220868 -1.862512 -32.053019 -0.719871 -0.125650 32.056482 -0.076761 0.024232 -0.009381 -13.978696 9.897279 -1.058499 0.000000 0.000000 0.000000 -4.199865 3.385767 0.682662 6.805475 -3.633132 -1.089395 -6.346822 -3.319551 1.569327 6.500309 2.677633 -1.899558 0.000000 0.000000 0.000000 0.000000 0.000000 0.000000 74.798194 20.584319 -4.292261 77.711837 -19.161805 29.297352 8.565535 2.265069 -86.661278 37.014248 -11.720462 68.885935 0.000000 0.000000 0.000000 0.000000 0.000000 0.000000 0.038090 -6.629625 33.298174 2.887724 3.508391 -1.036195 0.021210 3.802182 0.861398 0.000000 0.000000 0.000000 7.752787 8.854623 32.166468 -4.221351 -9.290394 2.647264 -7.480987 8.185689 -0.903086 0.000000 0.000000 0.000000
-64.314656 77.574735 388.814075 -0.353135 -1.676268 -27.906502 -0.622994 -0.065909 27.883942 -0.020887 -0.018025 -0.027214 -12.507709 9.173536 -1.049388 0.000000 0.000000 0.000000 -4.161415 1.913229 1.011226 6.307316 -1.499863 -1.234288 -5.531790 -3.110466 1.240909 4.866475 3.017094 -1.246765 0.000000 0.000000 0.000000 0.000000 0.000000 0.000000 76.605615 30.201749 -10.280989 69.260469 -11.034284 20.490125 5.265558 3.290412 -65.547492 34.115833 -14.576280 56.260139 0.000000 0.000000 0.000000 0.000000 0.000000 0.000000 0.351856 -5.545994 28.964124 2.199449 3.313800 -0.894585 -0.742613 3.632559 3.725104 0.000000 0.000000 0.000000 8.530963 6.820458 28.189414 -3.059234 -7.489694 2.426185 -8.383034 7.938433 2.021679 0.000000 0.000000 0.000000
-63.966295 77.809712 389.305946 -0.889350 -1.528069 -24.200147 -0.466598 -0.043985 24.155424 0.032696 -0.073868 -0.041221 -11.631978 8.712568 -1.031861 0.000000 0.000000 0.000000 -4.131620 0.555685 1.315604 5.448122 0.774695 -1.193929 -4.930093 -5.521821 0.682556 2.669680 6.902131 -0.162871 0.000000 0.000000 0.000000 0.000000 0.000000 0.000000 77.419383 36.878835 -14.707890 58.269564 -3.423847 9.163662 5.542441 -0.255569 -46.388359 30.295696 -18.243461 49.166939 0.000000 0.000000 0.000000 0.000000 0.000000 0.000000 0.570047 -4.449294 25.074247 1.775633 2.749320 -0.738179 -1.448645 3.505117 5.956758 0.000000 0.000000 0.000000 9.021363 4.908402 24.665083 -2.061960 -5.795475 2.173587 -9.063280 7.557988 4.333658 0.000000 0.000000 0.000000
-63.624555 78.046889 389.831637 -1.292054 -1.455726 -21.044721 -0.283708 -0.071347 20.984272 0.070148 -0.125968 -0.049140 -11.758836 8.970644 -1.006962 0.000000 0.000000 0.000000 -4.170544 -0.754245 1.610771 4.594121 0.584797 -1.220775 -3.959232 -6.477118 0.232071 -0.220712 10.923801 1.349126 0.000000 0.000000 0.000000 0.000000 0.000000 0.000000 77.439890 41.227890 -17.627467 48.333503 1.563062 1.794585 6.074240 -1.786480 -35.378700 21.848226 -19.135184 40.068283 0.000000 0.000000 0.000000 0.000000 0.000000 0.000000 0.559456 -3.518006 21.776043 1.760193 2.154984 -0.610191 -2.136079 3.330310 7.642356 0.000000 0.000000 0.000000 9.196183 3.280365 21.671227 -1.176615 -4.562672 2.003912 -9.620094 7.363904 6.080586 0.000000 0.000000 0.000000
